<svg width="1080" height="443" xmlns="http://www.w3.org/2000/svg" xmlns:xlink="http://www.w3.org/1999/xlink" overflow="hidden"><defs><clipPath id="clip0"><path d="M38 139 1118 139 1118 582 38 582Z" fill-rule="evenodd" clip-rule="evenodd"/></clipPath></defs><g clip-path="url(#clip0)" transform="translate(-38 -139)"><path d="M210.381 0.0594572C150.178-1.63718 75.1032 32.6871 20.8079 129.076 24.1361 155.143 25.931 158.027 26.5836 163.884L26.8062 167.408 19.4247 170.487C2.38336 181.076-2.5753 206.581 1.18402 231.673 5.48046 260.35 17.2965 281.644 35.8556 290.499L41.6168 292.47 44.0684 305.315C63.5801 387.335 128.172 430.5 175.755 440.339L188.364 441.606 188.364 442 190.324 441.803 192.284 442 192.284 441.606 204.892 440.339C252.475 430.5 317.067 387.335 336.579 305.315L339.216 291.501 342.144 290.499C360.703 281.644 372.52 260.35 376.816 231.673 380.396 207.776 376.069 183.504 360.928 172.099L359.093 171.184 361.382 148.211C363.502 98.8418 343.535 83.6848 315.145 83.6443L310.663 84.0533 310.374 69.8008C304.351 30.607 263.059 1.54397 210.381 0.0594572Z" fill="#FFFFFF" fill-rule="evenodd" transform="matrix(-1 -8.74228e-08 -8.74228e-08 1 416 139)"/><path d="M672.622 312.378C671.788 312.953 670.407 313.842 668.479 315.045 666.551 316.248 665.013 317.229 663.867 317.987 662.72 318.746 661.339 319.792 659.724 321.125 658.108 322.459 656.857 323.741 655.971 324.97 655.085 326.199 654.304 327.702 653.626 329.481 652.949 331.259 652.61 333.116 652.61 335.051 652.61 343.367 655.945 347.525 662.616 347.525 664.023 347.525 665.391 347.106 666.72 346.27 668.049 345.433 669.052 344.622 669.73 343.838 670.407 343.053 671.241 342.007 672.231 340.7 672.388 340.438 672.518 340.255 672.622 340.15ZM857.982 277.231C856.575 277.231 855.337 277.44 854.269 277.859 853.2 278.277 852.315 278.787 851.611 279.389 850.907 279.99 850.321 280.879 849.852 282.056 849.383 283.233 849.018 284.266 848.758 285.155 848.497 286.044 848.315 287.325 848.21 288.999 848.106 290.673 848.041 291.993 848.015 292.961 847.989 293.928 847.976 295.38 847.976 297.315L847.976 327.441C847.976 329.376 847.989 330.827 848.015 331.795 848.041 332.763 848.106 334.083 848.21 335.757 848.315 337.431 848.497 338.712 848.758 339.601 849.018 340.49 849.383 341.523 849.852 342.7 850.321 343.877 850.907 344.766 851.611 345.367 852.315 345.969 853.2 346.479 854.269 346.897 855.337 347.316 856.575 347.525 857.982 347.525 859.389 347.525 860.627 347.316 861.695 346.897 862.764 346.479 863.649 345.969 864.353 345.367 865.057 344.766 865.643 343.877 866.112 342.7 866.581 341.523 866.946 340.49 867.206 339.601 867.467 338.712 867.649 337.431 867.753 335.757 867.858 334.083 867.923 332.763 867.949 331.795 867.975 330.827 867.988 329.376 867.988 327.441L867.988 297.315C867.988 295.38 867.975 293.928 867.949 292.961 867.923 291.993 867.858 290.673 867.753 288.999 867.649 287.325 867.467 286.044 867.206 285.155 866.946 284.266 866.581 283.233 866.112 282.056 865.643 280.879 865.057 279.99 864.353 279.389 863.649 278.787 862.764 278.277 861.695 277.859 860.627 277.44 859.389 277.231 857.982 277.231ZM776.349 277.231C774.369 277.231 772.701 277.715 771.346 278.682 769.991 279.65 768.975 281.062 768.297 282.919 767.62 284.775 767.125 286.685 766.812 288.646 766.499 290.607 766.317 292.922 766.265 295.589 766.056 307.305 766.056 316.588 766.265 323.44 766.317 326.787 766.499 329.768 766.812 332.383 767.125 334.999 767.633 337.522 768.336 339.954 769.04 342.386 770.069 344.256 771.424 345.564 772.779 346.871 774.421 347.525 776.349 347.525 781.196 347.525 786.199 346.479 791.358 344.387L791.358 281.232C786.876 278.565 781.873 277.231 776.349 277.231ZM857.982 260.756C868.718 260.756 876.405 263.894 881.043 270.17 885.681 276.447 888 285.495 888 297.315L888 327.441C888 339.261 885.681 348.309 881.043 354.586 876.405 360.862 868.718 364 857.982 364 847.246 364 839.56 360.862 834.921 354.586 830.283 348.309 827.964 339.261 827.964 327.441L827.964 297.315C827.964 285.495 830.283 276.447 834.921 270.17 839.56 263.894 847.246 260.756 857.982 260.756ZM662.616 260.756C671.944 260.756 679.28 263.645 684.622 269.425 689.963 275.204 692.634 282.827 692.634 292.294L692.634 337.483C692.634 347.943 693.494 356.312 695.214 362.588L675.28 362.588 672.622 347.525C671.58 349.617 670.733 351.238 670.081 352.389 669.43 353.54 668.479 354.965 667.228 356.665 665.977 358.364 664.727 359.672 663.476 360.587 662.225 361.503 660.662 362.3 658.786 362.98 656.91 363.66 654.851 364 652.61 364 647.034 364 642.304 361.581 638.422 356.743 634.539 351.905 632.598 346.453 632.598 340.386 632.598 335.521 633.419 331.102 635.06 327.127 636.702 323.152 638.435 319.975 640.259 317.595 642.083 315.215 645.131 312.757 649.405 310.221 653.678 307.684 656.91 305.945 659.098 305.003 661.287 304.062 665.092 302.519 670.511 300.375 671.449 300.008 672.153 299.721 672.622 299.512L672.622 292.294C672.622 287.221 671.918 283.285 670.511 280.487 669.104 277.689 666.473 276.29 662.616 276.29 659.177 276.29 656.714 277.479 655.229 279.859 653.744 282.239 652.897 285.521 652.688 289.705 652.636 290.28 652.61 291.143 652.61 292.294L632.598 292.294C632.702 282.67 635.386 275.008 640.65 269.307 645.913 263.606 653.235 260.756 662.616 260.756ZM791.358 222.078 811.37 222.078 811.37 362.588 791.358 362.588 791.358 353.487C788.335 356.625 785.261 359.162 782.134 361.097 779.007 363.032 775.411 364 771.346 364 766.916 364 763.047 362.745 759.738 360.234 756.428 357.724 753.875 354.324 752.077 350.035 750.279 345.747 748.937 341.288 748.051 336.659 747.165 332.03 746.618 327.049 746.409 321.714 746.305 319.256 746.305 313.241 746.409 303.67 746.514 300.218 746.67 297.093 746.878 294.294 747.087 291.496 747.439 288.58 747.934 285.547 748.429 282.513 749.054 279.833 749.81 277.506 750.565 275.178 751.569 272.929 752.819 270.759 754.07 268.588 755.529 266.797 757.197 265.385 758.865 263.973 760.871 262.848 763.216 262.011 765.561 261.174 768.167 260.756 771.034 260.756 773.274 260.756 775.372 261.057 777.326 261.658 779.281 262.26 781.144 263.201 782.916 264.482 784.688 265.764 786.108 266.901 787.176 267.895 788.244 268.889 789.638 270.301 791.358 272.131ZM709.846 222 729.858 222 729.858 362.588 709.846 362.588ZM505 222 525.012 222 535.018 287.273 540.099 327.441 545.024 287.273 555.03 222 575.042 222 585.048 287.273 589.973 327.441 595.054 287.273 605.06 222 625.072 222 600.057 362.588 580.045 362.588 570.039 297.315 565.036 257.147 560.033 297.315 550.027 362.588 530.015 362.588Z" fill="#FFFFFF" fill-rule="evenodd"/><path d="M859.806 509.609C857.769 511.068 856.033 513.179 854.598 515.94 853.162 518.702 852.444 521.594 852.444 524.616 852.444 525.45 852.731 526.166 853.306 526.766 853.88 527.365 854.728 527.821 855.851 528.133 856.973 528.446 858.122 528.706 859.296 528.915 860.471 529.123 861.868 529.254 863.486 529.306 865.104 529.358 866.488 529.384 867.636 529.384 868.785 529.384 870.129 529.358 871.67 529.306 873.21 529.254 874.267 529.228 874.841 529.228 876.251 529.228 877.517 529.202 878.639 529.15 879.762 529.097 881.054 528.993 882.516 528.837 883.977 528.681 885.244 528.433 886.314 528.094 887.384 527.756 888.402 527.326 889.368 526.805 890.334 526.284 891.078 525.593 891.6 524.734 892.122 523.874 892.383 522.897 892.383 521.802 892.383 516.227 887.032 512.814 876.329 511.563ZM1021.08 429.025C1019.04 429.025 1017.33 429.572 1015.95 430.667 1014.56 431.761 1013.55 433.337 1012.89 435.396 1012.24 437.454 1011.78 439.473 1011.52 441.453 1011.26 443.433 1011.1 445.804 1011.05 448.566L1011.05 454.037 1030.94 454.037 1030.94 448.018C1030.89 445.361 1030.73 443.042 1030.47 441.062 1030.21 439.082 1029.76 437.102 1029.1 435.122 1028.45 433.142 1027.45 431.631 1026.09 430.589 1024.73 429.546 1023.06 429.025 1021.08 429.025ZM694.769 429.025C692.785 429.025 691.114 429.507 689.757 430.471 688.399 431.435 687.381 432.842 686.703 434.692 686.024 436.542 685.528 438.444 685.215 440.398 684.901 442.352 684.719 444.658 684.667 447.315 684.458 458.987 684.458 468.236 684.667 475.062 684.719 478.397 684.901 481.367 685.215 483.972 685.528 486.578 686.037 489.092 686.742 491.515 687.447 493.938 688.478 495.801 689.835 497.104 691.193 498.406 692.837 499.058 694.769 499.058 699.624 499.058 704.636 498.015 709.805 495.931L709.805 433.012C705.315 430.354 700.303 429.025 694.769 429.025ZM619.811 429.025C618.401 429.025 617.161 429.234 616.091 429.651 615.021 430.068 614.133 430.576 613.428 431.175 612.724 431.774 612.136 432.66 611.667 433.832 611.197 435.005 610.831 436.034 610.57 436.919 610.309 437.805 610.127 439.082 610.022 440.749 609.918 442.417 609.852 443.733 609.826 444.697 609.8 445.661 609.787 447.107 609.787 449.034L609.787 479.048C609.787 480.976 609.8 482.422 609.826 483.386 609.852 484.35 609.918 485.666 610.022 487.333 610.127 489.001 610.309 490.277 610.57 491.163 610.831 492.049 611.197 493.078 611.667 494.251 612.136 495.423 612.724 496.309 613.428 496.908 614.133 497.507 615.021 498.015 616.091 498.432 617.161 498.849 618.401 499.058 619.811 499.058 621.22 499.058 622.461 498.849 623.531 498.432 624.601 498.015 625.488 497.507 626.193 496.908 626.898 496.309 627.485 495.423 627.955 494.251 628.425 493.078 628.791 492.049 629.052 491.163 629.313 490.277 629.495 489.001 629.6 487.333 629.704 485.666 629.769 484.35 629.795 483.386 629.822 482.422 629.835 480.976 629.835 479.048L629.835 449.034C629.835 447.107 629.822 445.661 629.795 444.697 629.769 443.733 629.704 442.417 629.6 440.749 629.495 439.082 629.313 437.805 629.052 436.919 628.791 436.034 628.425 435.005 627.955 433.832 627.485 432.66 626.898 431.774 626.193 431.175 625.488 430.576 624.601 430.068 623.531 429.651 622.461 429.234 621.22 429.025 619.811 429.025ZM869.829 426.524C867.375 426.524 865.287 427.188 863.564 428.517 861.842 429.846 860.549 431.67 859.688 433.989 858.827 436.307 858.213 438.678 857.848 441.101 857.482 443.524 857.3 446.169 857.3 449.034 857.3 463.208 861.476 470.294 869.829 470.294 878.183 470.294 882.359 463.208 882.359 449.034 882.359 446.169 882.176 443.524 881.811 441.101 881.445 438.678 880.819 436.307 879.931 433.989 879.044 431.67 877.739 429.846 876.016 428.517 874.293 427.188 872.231 426.524 869.829 426.524ZM1066.88 414.018 1117 414.018 1117 429.025 1081.92 499.058 1117 499.058 1117 514.064 1061.87 514.064 1061.87 499.058 1096.95 429.025 1066.88 429.025ZM803.892 414.018 823.939 414.018 823.939 514.064 803.892 514.064ZM915.791 414.018 935.838 414.018 935.838 493.195C935.838 495.28 936.478 496.973 937.757 498.276 939.036 499.578 940.694 500.23 942.73 500.23 943.826 500.23 944.896 500.099 945.941 499.839 946.985 499.578 948.016 499.122 949.034 498.471 950.052 497.82 950.848 497.299 951.422 496.908 951.996 496.517 952.819 495.853 953.889 494.915 954.959 493.977 955.625 493.404 955.886 493.195L955.886 414.018 975.934 414.018 975.934 514.064 955.886 514.064 955.886 503.278C953.902 504.998 952.453 506.248 951.54 507.03 950.626 507.811 949.229 508.866 947.35 510.195 945.471 511.524 943.813 512.488 942.377 513.087 940.942 513.686 939.154 514.234 937.013 514.729 934.872 515.224 932.654 515.471 930.356 515.471 925.971 515.471 922.447 513.921 919.785 510.821 917.122 507.72 915.791 503.877 915.791 499.292ZM1021.08 412.612C1025.36 412.612 1029.13 413.172 1032.39 414.292 1035.66 415.412 1038.37 417.106 1040.54 419.373 1042.7 421.639 1044.5 424.153 1045.94 426.915 1047.38 429.677 1048.46 433.025 1049.19 436.959 1049.92 440.893 1050.43 444.762 1050.72 448.566 1051 452.369 1051.15 456.746 1051.15 461.697L1051.15 464.042 1011.05 464.042 1011.05 469.044C1011.05 469.721 1011.05 470.789 1011.05 472.248 1010.95 474.176 1010.93 476.169 1011.01 478.228 1011.09 480.286 1011.18 482.305 1011.29 484.285 1011.39 486.265 1011.68 488.154 1012.15 489.952 1012.62 491.75 1013.19 493.326 1013.87 494.68 1014.55 496.035 1015.5 497.104 1016.73 497.885 1017.96 498.667 1019.41 499.058 1021.08 499.058 1023.16 499.058 1024.89 498.654 1026.24 497.846 1027.6 497.038 1028.61 495.827 1029.26 494.212 1029.91 492.596 1030.37 490.981 1030.63 489.366 1030.89 487.75 1031.05 485.718 1031.1 483.269L1031.1 479.048 1050.99 479.048 1050.99 483.035C1050.52 493.717 1047.88 501.793 1043.08 507.264 1038.28 512.736 1030.89 515.471 1020.92 515.471 1016.06 515.471 1011.85 514.638 1008.27 512.97 1004.7 511.303 1001.85 509.127 999.737 506.444 997.622 503.76 995.912 500.321 994.607 496.126 993.302 491.932 992.401 487.737 991.905 483.543 991.409 479.348 991.109 474.463 991.005 468.887 990.848 464.51 990.848 460.133 991.005 455.756 991.161 450.546 991.514 445.921 992.062 441.883 992.61 437.844 993.563 433.923 994.92 430.12 996.278 426.316 998.04 423.189 1000.21 420.74 1002.37 418.291 1005.22 416.324 1008.74 414.839 1012.27 413.354 1016.38 412.612 1021.08 412.612ZM869.829 412.612C873.536 412.612 876.773 413.133 879.54 414.175 882.307 415.217 884.565 416.533 886.314 418.122 888.063 419.711 889.773 421.808 891.443 424.414 895.411 417.067 901.049 413.159 908.358 412.69 908.515 412.69 908.672 412.69 908.828 412.69 908.985 412.69 909.181 412.69 909.416 412.69 909.65 412.69 909.82 412.69 909.924 412.69L909.924 429.025C909.663 429.025 909.246 429.025 908.672 429.025 906.427 429.025 904.73 429.051 903.581 429.104 902.433 429.156 901.154 429.377 899.744 429.768 898.334 430.159 897.212 430.771 896.377 431.605 897.316 433.637 898.139 436.333 898.843 439.694 899.548 443.055 899.901 446.169 899.901 449.034 899.901 456.017 898.843 462.192 896.729 467.559 894.615 472.926 891.247 477.225 886.627 480.455 882.007 483.686 876.407 485.301 869.829 485.301L859.727 484.129C859.623 484.389 859.362 484.845 858.944 485.497 858.526 486.148 858.2 486.682 857.965 487.099 857.73 487.516 857.508 488.05 857.3 488.701 857.091 489.352 856.986 489.965 856.986 490.538 856.986 491.893 857.639 493.039 858.944 493.977 860.249 494.915 862.05 495.605 864.348 496.048 866.645 496.491 868.85 496.817 870.965 497.025 873.079 497.234 875.442 497.403 878.052 497.533 880.662 497.664 882.463 497.807 883.455 497.963 886.431 498.38 889.081 498.862 891.404 499.409 893.727 499.956 896.103 500.751 898.53 501.793 900.958 502.835 902.955 504.086 904.521 505.545 906.087 507.004 907.379 508.88 908.397 511.172 909.416 513.465 909.924 516.097 909.924 519.067 909.924 522.714 909.285 525.971 908.006 528.837 906.727 531.703 905.017 534.074 902.876 535.95 900.736 537.825 898.152 539.376 895.124 540.6 892.096 541.825 888.911 542.697 885.57 543.219 882.228 543.74 878.652 544 874.841 544 872.335 544 870.299 543.987 868.733 543.961 867.167 543.935 865.026 543.87 862.311 543.766 859.597 543.661 857.326 543.466 855.498 543.179 853.671 542.893 851.583 542.528 849.233 542.085 846.884 541.642 844.939 541.056 843.399 540.326 841.859 539.597 840.384 538.737 838.975 537.747 837.565 536.757 836.508 535.546 835.803 534.113 835.098 532.68 834.746 531.077 834.746 529.306 834.746 524.095 836.143 519.64 838.936 515.94 841.729 512.241 845.344 509.297 849.782 507.108 847.067 506.379 844.718 505.271 842.734 503.786 840.75 502.301 839.758 500.49 839.758 498.354 839.758 497.468 839.862 496.53 840.071 495.54 840.28 494.55 840.515 493.651 840.776 492.844 841.037 492.036 841.455 491.111 842.029 490.069 842.603 489.027 843.06 488.206 843.399 487.607 843.739 487.008 844.3 486.174 845.083 485.106 845.866 484.038 846.401 483.308 846.688 482.917 846.976 482.527 847.537 481.823 848.372 480.807 849.207 479.791 849.677 479.205 849.782 479.048 843.099 471.128 839.758 461.123 839.758 449.034 839.758 442.104 840.854 435.93 843.047 430.51 845.24 425.091 848.646 420.753 853.266 417.497 857.887 414.24 863.408 412.612 869.829 412.612ZM619.811 412.612C630.566 412.612 638.266 415.738 642.913 421.991 647.559 428.244 649.882 437.258 649.882 449.034L649.882 479.048C649.882 490.825 647.559 499.839 642.913 506.092 638.266 512.345 630.566 515.471 619.811 515.471 609.056 515.471 601.356 512.345 596.709 506.092 592.063 499.839 589.74 490.825 589.74 479.048L589.74 449.034C589.74 437.258 592.063 428.244 596.709 421.991 601.356 415.738 609.056 412.612 619.811 412.612ZM790.251 412.611C790.408 412.611 791.478 412.716 793.462 412.924L793.462 435.044C789.755 433.585 786.048 432.855 782.342 432.855 778.165 432.855 774.798 434.106 772.24 436.607 769.682 439.108 768.402 442.417 768.402 446.533L768.402 514.064 748.355 514.064 748.355 414.018 768.402 414.018 768.402 427.384C770.438 423.424 773.401 419.971 777.291 417.027 781.18 414.083 785.5 412.611 790.251 412.611ZM525.048 389.007 525.048 434.028 530.059 434.028C538.413 434.028 544.677 432.269 548.854 428.752 553.031 425.235 555.119 419.49 555.119 411.517 555.119 403.545 553.031 397.8 548.854 394.283 544.677 390.766 538.413 389.007 530.059 389.007ZM818.927 374.625 838.975 374.625 818.927 404.639 808.903 404.639ZM709.805 374.078 729.852 374.078 729.852 514.064 709.805 514.064 709.805 504.998C706.776 508.124 703.696 510.651 700.564 512.579 697.431 514.507 693.829 515.471 689.757 515.471 685.319 515.471 681.443 514.221 678.128 511.72 674.813 509.218 672.254 505.832 670.453 501.559 668.652 497.286 667.308 492.844 666.42 488.232 665.533 483.621 664.985 478.658 664.776 473.343 664.671 470.894 664.671 464.901 664.776 455.366 664.88 451.927 665.037 448.813 665.246 446.025 665.454 443.238 665.807 440.333 666.303 437.31 666.799 434.288 667.425 431.618 668.182 429.299 668.939 426.98 669.944 424.739 671.197 422.577 672.45 420.415 673.912 418.63 675.582 417.223 677.253 415.816 679.263 414.696 681.613 413.862 683.962 413.028 686.572 412.612 689.444 412.612 691.688 412.612 693.79 412.911 695.748 413.51 697.705 414.11 699.572 415.048 701.347 416.324 703.122 417.601 704.545 418.734 705.615 419.724 706.685 420.714 708.082 422.121 709.805 423.945ZM505 374 530.059 374C544.991 374 556.241 376.892 563.811 382.676 571.381 388.46 575.167 398.074 575.167 411.517 575.167 419.855 573.679 426.837 570.703 432.464 567.727 438.092 563.368 441.948 557.625 444.032L580.178 514.064 560.288 514.064 540.083 449.034 525.048 449.034 525.048 514.064 505 514.064Z" fill="#FFFFFF" fill-rule="evenodd"/></g></svg>