<svg width="1080" height="443" xmlns="http://www.w3.org/2000/svg" xmlns:xlink="http://www.w3.org/1999/xlink" overflow="hidden"><defs><clipPath id="clip0"><path d="M100 139 1180 139 1180 582 100 582Z" fill-rule="evenodd" clip-rule="evenodd"/></clipPath></defs><g clip-path="url(#clip0)" transform="translate(-100 -139)"><path d="M210.381 0.0594572C150.178-1.63718 75.1032 32.6871 20.8079 129.076 24.1361 155.143 25.931 158.027 26.5836 163.884L26.8062 167.408 19.4247 170.487C2.38336 181.076-2.5753 206.581 1.18402 231.673 5.48046 260.35 17.2965 281.644 35.8556 290.499L41.6168 292.47 44.0684 305.315C63.5801 387.335 128.172 430.5 175.755 440.339L188.364 441.606 188.364 442 190.324 441.803 192.284 442 192.284 441.606 204.892 440.339C252.475 430.5 317.067 387.335 336.579 305.315L339.216 291.501 342.144 290.499C360.703 281.644 372.52 260.35 376.816 231.673 380.396 207.776 376.069 183.504 360.928 172.099L359.093 171.184 361.382 148.211C363.502 98.8418 343.535 83.6848 315.145 83.6443L310.663 84.0533 310.374 69.8008C304.351 30.607 263.059 1.54397 210.381 0.0594572Z" fill="#999999" fill-rule="evenodd" transform="matrix(-1 -8.74228e-08 -8.74228e-08 1 479 139)"/><path d="M735.06 312.378C734.224 312.953 732.839 313.842 730.906 315.045 728.972 316.248 727.431 317.229 726.281 317.987 725.132 318.746 723.747 319.792 722.128 321.125 720.508 322.459 719.254 323.741 718.365 324.97 717.477 326.199 716.694 327.702 716.014 329.481 715.335 331.259 714.995 333.116 714.995 335.051 714.995 343.367 718.339 347.525 725.028 347.525 726.438 347.525 727.81 347.106 729.142 346.27 730.475 345.433 731.48 344.622 732.16 343.838 732.839 343.053 733.675 342.007 734.668 340.7 734.825 340.438 734.955 340.255 735.06 340.15ZM920.904 277.231C919.493 277.231 918.252 277.44 917.181 277.859 916.109 278.277 915.221 278.787 914.516 279.389 913.811 279.99 913.223 280.879 912.753 282.056 912.282 283.233 911.916 284.266 911.655 285.155 911.394 286.044 911.211 287.325 911.107 288.999 911.002 290.673 910.937 291.993 910.911 292.961 910.885 293.928 910.871 295.38 910.871 297.315L910.871 327.441C910.871 329.376 910.885 330.827 910.911 331.795 910.937 332.763 911.002 334.083 911.107 335.757 911.211 337.431 911.394 338.712 911.655 339.601 911.916 340.49 912.282 341.523 912.753 342.7 913.223 343.877 913.811 344.766 914.516 345.367 915.221 345.969 916.109 346.479 917.181 346.897 918.252 347.316 919.493 347.525 920.904 347.525 922.314 347.525 923.555 347.316 924.626 346.897 925.698 346.479 926.586 345.969 927.291 345.367 927.997 344.766 928.584 343.877 929.055 342.7 929.525 341.523 929.891 340.49 930.152 339.601 930.413 338.712 930.596 337.431 930.701 335.757 930.805 334.083 930.87 332.763 930.896 331.795 930.923 330.827 930.936 329.376 930.936 327.441L930.936 297.315C930.936 295.38 930.923 293.928 930.896 292.961 930.87 291.993 930.805 290.673 930.701 288.999 930.596 287.325 930.413 286.044 930.152 285.155 929.891 284.266 929.525 283.233 929.055 282.056 928.584 280.879 927.997 279.99 927.291 279.389 926.586 278.787 925.698 278.277 924.626 277.859 923.555 277.44 922.314 277.231 920.904 277.231ZM839.057 277.231C837.072 277.231 835.4 277.715 834.042 278.682 832.683 279.65 831.664 281.062 830.985 282.919 830.306 284.775 829.809 286.685 829.496 288.646 829.182 290.607 828.999 292.922 828.947 295.589 828.738 307.305 828.738 316.588 828.947 323.44 828.999 326.787 829.182 329.768 829.496 332.383 829.809 334.999 830.319 337.522 831.024 339.954 831.729 342.386 832.761 344.256 834.12 345.564 835.478 346.871 837.124 347.525 839.057 347.525 843.917 347.525 848.933 346.479 854.106 344.387L854.106 281.232C849.612 278.565 844.596 277.231 839.057 277.231ZM920.904 260.756C931.667 260.756 939.374 263.894 944.024 270.17 948.675 276.447 951 285.495 951 297.315L951 327.441C951 339.261 948.675 348.309 944.024 354.586 939.374 360.862 931.667 364 920.904 364 910.14 364 902.433 360.862 897.783 354.586 893.132 348.309 890.807 339.261 890.807 327.441L890.807 297.315C890.807 285.495 893.132 276.447 897.783 270.17 902.433 263.894 910.14 260.756 920.904 260.756ZM725.028 260.756C734.38 260.756 741.735 263.645 747.091 269.425 752.446 275.204 755.124 282.827 755.124 292.294L755.124 337.483C755.124 347.943 755.986 356.312 757.71 362.588L737.724 362.588 735.06 347.525C734.015 349.617 733.166 351.238 732.512 352.389 731.859 353.54 730.906 354.965 729.652 356.665 728.398 358.364 727.144 359.672 725.89 360.587 724.636 361.503 723.068 362.3 721.187 362.98 719.306 363.66 717.242 364 714.995 364 709.405 364 704.663 361.581 700.77 356.743 696.877 351.905 694.931 346.453 694.931 340.386 694.931 335.521 695.754 331.102 697.4 327.127 699.046 323.152 700.783 319.975 702.612 317.595 704.441 315.215 707.497 312.757 711.782 310.221 716.067 307.684 719.306 305.945 721.501 305.003 723.695 304.062 727.51 302.519 732.944 300.375 733.884 300.008 734.589 299.721 735.06 299.512L735.06 292.294C735.06 287.221 734.354 283.285 732.944 280.487 731.533 277.689 728.894 276.29 725.028 276.29 721.579 276.29 719.11 277.479 717.621 279.859 716.132 282.239 715.283 285.521 715.074 289.705 715.022 290.28 714.995 291.143 714.995 292.294L694.931 292.294C695.036 282.67 697.727 275.008 703.004 269.307 708.281 263.606 715.622 260.756 725.028 260.756ZM854.106 222.078 874.17 222.078 874.17 362.588 854.106 362.588 854.106 353.487C851.075 356.625 847.992 359.162 844.857 361.097 841.722 363.032 838.117 364 834.042 364 829.6 364 825.721 362.745 822.403 360.234 819.085 357.724 816.524 354.324 814.722 350.035 812.919 345.747 811.574 341.288 810.685 336.659 809.797 332.03 809.249 327.049 809.04 321.714 808.935 319.256 808.935 313.241 809.04 303.67 809.144 300.218 809.301 297.093 809.51 294.294 809.719 291.496 810.072 288.58 810.568 285.547 811.064 282.513 811.691 279.833 812.449 277.506 813.207 275.178 814.212 272.929 815.466 270.759 816.72 268.588 818.183 266.797 819.855 265.385 821.528 263.973 823.539 262.848 825.891 262.011 828.242 261.174 830.854 260.756 833.728 260.756 835.975 260.756 838.078 261.057 840.037 261.658 841.997 262.26 843.865 263.201 845.641 264.482 847.418 265.764 848.842 266.901 849.913 267.895 850.984 268.889 852.382 270.301 854.106 272.131ZM772.381 222 792.445 222 792.445 362.588 772.381 362.588ZM567 222 587.064 222 597.096 287.273 602.191 327.441 607.129 287.273 617.161 222 637.225 222 647.257 287.273 652.195 327.441 657.289 287.273 667.321 222 687.386 222 662.305 362.588 642.241 362.588 632.209 297.315 627.193 257.147 622.177 297.315 612.145 362.588 592.08 362.588Z" fill="#999999" fill-rule="evenodd"/><path d="M921.806 509.609C919.769 511.068 918.033 513.179 916.598 515.94 915.162 518.702 914.444 521.594 914.444 524.616 914.444 525.45 914.731 526.166 915.306 526.766 915.88 527.365 916.728 527.821 917.851 528.133 918.973 528.446 920.122 528.706 921.296 528.915 922.471 529.123 923.868 529.254 925.486 529.306 927.104 529.358 928.488 529.384 929.636 529.384 930.785 529.384 932.129 529.358 933.67 529.306 935.21 529.254 936.267 529.228 936.841 529.228 938.251 529.228 939.517 529.202 940.639 529.15 941.762 529.097 943.054 528.993 944.516 528.837 945.977 528.681 947.244 528.433 948.314 528.094 949.384 527.756 950.402 527.326 951.368 526.805 952.334 526.284 953.078 525.593 953.6 524.734 954.122 523.874 954.383 522.897 954.383 521.802 954.383 516.227 949.032 512.814 938.329 511.563ZM1083.08 429.025C1081.04 429.025 1079.33 429.572 1077.95 430.667 1076.56 431.761 1075.55 433.337 1074.89 435.396 1074.24 437.454 1073.78 439.473 1073.52 441.453 1073.26 443.433 1073.1 445.804 1073.05 448.566L1073.05 454.037 1092.94 454.037 1092.94 448.018C1092.89 445.361 1092.73 443.042 1092.47 441.062 1092.21 439.082 1091.76 437.102 1091.1 435.122 1090.45 433.142 1089.45 431.631 1088.09 430.589 1086.73 429.546 1085.06 429.025 1083.08 429.025ZM756.769 429.025C754.785 429.025 753.114 429.507 751.757 430.471 750.399 431.435 749.381 432.842 748.703 434.692 748.024 436.542 747.528 438.444 747.215 440.398 746.901 442.352 746.719 444.658 746.667 447.315 746.458 458.987 746.458 468.236 746.667 475.062 746.719 478.397 746.901 481.367 747.215 483.972 747.528 486.578 748.037 489.092 748.742 491.515 749.447 493.938 750.478 495.801 751.835 497.104 753.193 498.406 754.837 499.058 756.769 499.058 761.624 499.058 766.636 498.015 771.805 495.931L771.805 433.012C767.315 430.354 762.303 429.025 756.769 429.025ZM681.811 429.025C680.401 429.025 679.161 429.234 678.091 429.651 677.021 430.068 676.133 430.576 675.428 431.175 674.724 431.774 674.136 432.66 673.667 433.832 673.197 435.005 672.831 436.034 672.57 436.919 672.309 437.805 672.127 439.082 672.022 440.749 671.918 442.417 671.852 443.733 671.826 444.697 671.8 445.661 671.787 447.107 671.787 449.034L671.787 479.048C671.787 480.976 671.8 482.422 671.826 483.386 671.852 484.35 671.918 485.666 672.022 487.333 672.127 489.001 672.309 490.277 672.57 491.163 672.831 492.049 673.197 493.078 673.667 494.251 674.136 495.423 674.724 496.309 675.428 496.908 676.133 497.507 677.021 498.015 678.091 498.432 679.161 498.849 680.401 499.058 681.811 499.058 683.22 499.058 684.461 498.849 685.531 498.432 686.601 498.015 687.488 497.507 688.193 496.908 688.898 496.309 689.485 495.423 689.955 494.251 690.425 493.078 690.791 492.049 691.052 491.163 691.313 490.277 691.495 489.001 691.6 487.333 691.704 485.666 691.769 484.35 691.795 483.386 691.822 482.422 691.835 480.976 691.835 479.048L691.835 449.034C691.835 447.107 691.822 445.661 691.795 444.697 691.769 443.733 691.704 442.417 691.6 440.749 691.495 439.082 691.313 437.805 691.052 436.919 690.791 436.034 690.425 435.005 689.955 433.832 689.485 432.66 688.898 431.774 688.193 431.175 687.488 430.576 686.601 430.068 685.531 429.651 684.461 429.234 683.22 429.025 681.811 429.025ZM931.829 426.524C929.375 426.524 927.287 427.188 925.564 428.517 923.842 429.846 922.549 431.67 921.688 433.989 920.827 436.307 920.213 438.678 919.848 441.101 919.482 443.524 919.3 446.169 919.3 449.034 919.3 463.208 923.476 470.294 931.829 470.294 940.183 470.294 944.359 463.208 944.359 449.034 944.359 446.169 944.176 443.524 943.811 441.101 943.445 438.678 942.819 436.307 941.931 433.989 941.044 431.67 939.739 429.846 938.016 428.517 936.293 427.188 934.231 426.524 931.829 426.524ZM1128.88 414.018 1179 414.018 1179 429.025 1143.92 499.058 1179 499.058 1179 514.064 1123.87 514.064 1123.87 499.058 1158.95 429.025 1128.88 429.025ZM865.892 414.018 885.939 414.018 885.939 514.064 865.892 514.064ZM977.791 414.018 997.838 414.018 997.838 493.195C997.838 495.28 998.478 496.973 999.757 498.276 1001.04 499.578 1002.69 500.23 1004.73 500.23 1005.83 500.23 1006.9 500.099 1007.94 499.839 1008.98 499.578 1010.02 499.122 1011.03 498.471 1012.05 497.82 1012.85 497.299 1013.42 496.908 1014 496.517 1014.82 495.853 1015.89 494.915 1016.96 493.977 1017.63 493.404 1017.89 493.195L1017.89 414.018 1037.93 414.018 1037.93 514.064 1017.89 514.064 1017.89 503.278C1015.9 504.998 1014.45 506.248 1013.54 507.03 1012.63 507.811 1011.23 508.866 1009.35 510.195 1007.47 511.524 1005.81 512.488 1004.38 513.087 1002.94 513.686 1001.15 514.234 999.013 514.729 996.872 515.224 994.654 515.471 992.356 515.471 987.971 515.471 984.447 513.921 981.785 510.821 979.122 507.72 977.791 503.877 977.791 499.292ZM1083.08 412.612C1087.36 412.612 1091.13 413.172 1094.39 414.292 1097.66 415.412 1100.37 417.106 1102.54 419.373 1104.7 421.639 1106.5 424.153 1107.94 426.915 1109.38 429.677 1110.46 433.025 1111.19 436.959 1111.92 440.893 1112.43 444.762 1112.72 448.566 1113 452.369 1113.15 456.746 1113.15 461.697L1113.15 464.042 1073.05 464.042 1073.05 469.044C1073.05 469.721 1073.05 470.789 1073.05 472.248 1072.95 474.176 1072.93 476.169 1073.01 478.228 1073.09 480.286 1073.18 482.305 1073.29 484.285 1073.39 486.265 1073.68 488.154 1074.15 489.952 1074.62 491.75 1075.19 493.326 1075.87 494.68 1076.55 496.035 1077.5 497.104 1078.73 497.885 1079.96 498.667 1081.41 499.058 1083.08 499.058 1085.16 499.058 1086.89 498.654 1088.24 497.846 1089.6 497.038 1090.61 495.827 1091.26 494.212 1091.91 492.596 1092.37 490.981 1092.63 489.366 1092.89 487.75 1093.05 485.718 1093.1 483.269L1093.1 479.048 1112.99 479.048 1112.99 483.035C1112.52 493.717 1109.88 501.793 1105.08 507.264 1100.28 512.736 1092.89 515.471 1082.92 515.471 1078.06 515.471 1073.85 514.638 1070.27 512.97 1066.7 511.303 1063.85 509.127 1061.74 506.444 1059.62 503.76 1057.91 500.321 1056.61 496.126 1055.3 491.932 1054.4 487.737 1053.91 483.543 1053.41 479.348 1053.11 474.463 1053 468.887 1052.85 464.51 1052.85 460.133 1053 455.756 1053.16 450.546 1053.51 445.921 1054.06 441.883 1054.61 437.844 1055.56 433.923 1056.92 430.12 1058.28 426.316 1060.04 423.189 1062.21 420.74 1064.37 418.291 1067.22 416.324 1070.74 414.839 1074.27 413.354 1078.38 412.612 1083.08 412.612ZM931.829 412.612C935.536 412.612 938.773 413.133 941.54 414.175 944.307 415.217 946.565 416.533 948.314 418.122 950.063 419.711 951.773 421.808 953.443 424.414 957.411 417.067 963.049 413.159 970.358 412.69 970.515 412.69 970.672 412.69 970.828 412.69 970.985 412.69 971.181 412.69 971.416 412.69 971.65 412.69 971.82 412.69 971.924 412.69L971.924 429.025C971.663 429.025 971.246 429.025 970.672 429.025 968.427 429.025 966.73 429.051 965.581 429.104 964.433 429.156 963.154 429.377 961.744 429.768 960.334 430.159 959.212 430.771 958.377 431.605 959.316 433.637 960.139 436.333 960.843 439.694 961.548 443.055 961.901 446.169 961.901 449.034 961.901 456.017 960.843 462.192 958.729 467.559 956.615 472.926 953.247 477.225 948.627 480.455 944.007 483.686 938.407 485.301 931.829 485.301L921.727 484.129C921.623 484.389 921.362 484.845 920.944 485.497 920.526 486.148 920.2 486.682 919.965 487.099 919.73 487.516 919.508 488.05 919.3 488.701 919.091 489.352 918.986 489.965 918.986 490.538 918.986 491.893 919.639 493.039 920.944 493.977 922.249 494.915 924.05 495.605 926.348 496.048 928.645 496.491 930.85 496.817 932.965 497.025 935.079 497.234 937.442 497.403 940.052 497.533 942.662 497.664 944.463 497.807 945.455 497.963 948.431 498.38 951.081 498.862 953.404 499.409 955.727 499.956 958.103 500.751 960.53 501.793 962.958 502.835 964.955 504.086 966.521 505.545 968.087 507.004 969.379 508.88 970.397 511.172 971.416 513.465 971.924 516.097 971.924 519.067 971.924 522.714 971.285 525.971 970.006 528.837 968.727 531.703 967.017 534.074 964.876 535.95 962.736 537.825 960.152 539.376 957.124 540.6 954.096 541.825 950.911 542.697 947.57 543.219 944.228 543.74 940.652 544 936.841 544 934.335 544 932.299 543.987 930.733 543.961 929.167 543.935 927.026 543.87 924.311 543.766 921.597 543.661 919.326 543.466 917.498 543.179 915.671 542.893 913.583 542.528 911.233 542.085 908.884 541.642 906.939 541.056 905.399 540.326 903.859 539.597 902.384 538.737 900.975 537.747 899.565 536.757 898.508 535.546 897.803 534.113 897.098 532.68 896.746 531.077 896.746 529.306 896.746 524.095 898.143 519.64 900.936 515.94 903.729 512.241 907.344 509.297 911.782 507.108 909.067 506.379 906.718 505.271 904.734 503.786 902.75 502.301 901.758 500.49 901.758 498.354 901.758 497.468 901.862 496.53 902.071 495.54 902.28 494.55 902.515 493.651 902.776 492.844 903.037 492.036 903.455 491.111 904.029 490.069 904.603 489.027 905.06 488.206 905.399 487.607 905.739 487.008 906.3 486.174 907.083 485.106 907.866 484.038 908.401 483.308 908.688 482.917 908.976 482.527 909.537 481.823 910.372 480.807 911.207 479.791 911.677 479.205 911.782 479.048 905.099 471.128 901.758 461.123 901.758 449.034 901.758 442.104 902.854 435.93 905.047 430.51 907.24 425.091 910.646 420.753 915.266 417.497 919.887 414.24 925.408 412.612 931.829 412.612ZM681.811 412.612C692.566 412.612 700.266 415.738 704.913 421.991 709.559 428.244 711.882 437.258 711.882 449.034L711.882 479.048C711.882 490.825 709.559 499.839 704.913 506.092 700.266 512.345 692.566 515.471 681.811 515.471 671.056 515.471 663.356 512.345 658.709 506.092 654.063 499.839 651.74 490.825 651.74 479.048L651.74 449.034C651.74 437.258 654.063 428.244 658.709 421.991 663.356 415.738 671.056 412.612 681.811 412.612ZM852.251 412.611C852.408 412.611 853.478 412.716 855.462 412.924L855.462 435.044C851.755 433.585 848.048 432.855 844.342 432.855 840.165 432.855 836.798 434.106 834.24 436.607 831.682 439.108 830.402 442.417 830.402 446.533L830.402 514.064 810.355 514.064 810.355 414.018 830.402 414.018 830.402 427.384C832.438 423.424 835.401 419.971 839.291 417.027 843.18 414.083 847.5 412.611 852.251 412.611ZM587.048 389.007 587.048 434.028 592.059 434.028C600.413 434.028 606.677 432.269 610.854 428.752 615.031 425.235 617.119 419.49 617.119 411.517 617.119 403.545 615.031 397.8 610.854 394.283 606.677 390.766 600.413 389.007 592.059 389.007ZM880.927 374.625 900.975 374.625 880.927 404.639 870.903 404.639ZM771.805 374.078 791.852 374.078 791.852 514.064 771.805 514.064 771.805 504.998C768.776 508.124 765.696 510.651 762.564 512.579 759.431 514.507 755.829 515.471 751.757 515.471 747.319 515.471 743.443 514.221 740.128 511.72 736.813 509.218 734.254 505.832 732.453 501.559 730.652 497.286 729.308 492.844 728.42 488.232 727.533 483.621 726.985 478.658 726.776 473.343 726.671 470.894 726.671 464.901 726.776 455.366 726.88 451.927 727.037 448.813 727.246 446.025 727.454 443.238 727.807 440.333 728.303 437.31 728.799 434.288 729.425 431.618 730.182 429.299 730.939 426.98 731.944 424.739 733.197 422.577 734.45 420.415 735.912 418.63 737.582 417.223 739.253 415.816 741.263 414.696 743.613 413.862 745.962 413.028 748.572 412.612 751.444 412.612 753.688 412.612 755.79 412.911 757.748 413.51 759.705 414.11 761.572 415.048 763.347 416.324 765.122 417.601 766.545 418.734 767.615 419.724 768.685 420.714 770.082 422.121 771.805 423.945ZM567 374 592.059 374C606.991 374 618.241 376.892 625.811 382.676 633.381 388.46 637.167 398.074 637.167 411.517 637.167 419.855 635.679 426.837 632.703 432.464 629.727 438.092 625.368 441.948 619.625 444.032L642.178 514.064 622.288 514.064 602.083 449.034 587.048 449.034 587.048 514.064 567 514.064Z" fill="#999999" fill-rule="evenodd"/></g></svg>